<svg width="1000" height="1000" viewBox="0 0 1000 1000" fill="none" xmlns="http://www.w3.org/2000/svg">
<path d="M900 10H100C50.2944 10 10 50.2944 10 100V900C10 949.706 50.2944 990 100 990H900C949.706 990 990 949.706 990 900V100C990 50.2944 949.706 10 900 10Z" fill="url(#paint0_linear_115_418)"/>
<path d="M292.432 273.557C283.74 273.557 276.025 275.266 269.287 278.684C262.646 282.004 257.031 286.838 252.441 293.186C247.949 299.533 244.531 307.199 242.188 316.184C239.844 325.168 238.672 335.275 238.672 346.506C238.672 361.643 240.527 374.582 244.238 385.324C248.047 395.969 253.906 404.123 261.816 409.787C269.727 415.354 279.932 418.137 292.432 418.137C301.123 418.137 309.814 417.16 318.506 415.207C327.295 413.254 336.816 410.471 347.07 406.857V444.943C337.598 448.85 328.271 451.633 319.092 453.293C309.912 455.051 299.609 455.93 288.184 455.93C266.113 455.93 247.949 451.389 233.691 442.307C219.531 433.127 209.033 420.334 202.197 403.928C195.361 387.424 191.943 368.186 191.943 346.213C191.943 330.002 194.141 315.158 198.535 301.682C202.93 288.205 209.375 276.535 217.871 266.672C226.367 256.809 236.865 249.191 249.365 243.82C261.865 238.449 276.221 235.764 292.432 235.764C303.076 235.764 313.721 237.131 324.365 239.865C335.107 242.502 345.361 246.164 355.127 250.852L340.479 287.766C332.471 283.957 324.414 280.637 316.309 277.805C308.203 274.973 300.244 273.557 292.432 273.557ZM560.791 238.84L487.988 453H438.477L365.82 238.84H411.67L451.953 366.281C452.637 368.43 453.76 372.482 455.322 378.439C456.885 384.299 458.447 390.549 460.01 397.189C461.67 403.732 462.793 409.152 463.379 413.449C463.965 409.152 464.99 403.732 466.455 397.189C468.018 390.646 469.531 384.445 470.996 378.586C472.559 372.629 473.682 368.527 474.365 366.281L514.941 238.84H560.791ZM587.891 453V238.84H633.301V453H587.891ZM813.623 393.527C813.623 406.223 810.547 417.258 804.395 426.633C798.242 436.008 789.258 443.234 777.441 448.312C765.723 453.391 751.465 455.93 734.668 455.93C727.246 455.93 719.971 455.441 712.842 454.465C705.811 453.488 699.023 452.072 692.48 450.217C686.035 448.264 679.883 445.871 674.023 443.039V400.852C684.18 405.344 694.727 409.396 705.664 413.01C716.602 416.623 727.441 418.43 738.184 418.43C745.605 418.43 751.562 417.453 756.055 415.5C760.645 413.547 763.965 410.861 766.016 407.443C768.066 404.025 769.092 400.119 769.092 395.725C769.092 390.354 767.285 385.764 763.672 381.955C760.059 378.146 755.078 374.582 748.73 371.262C742.48 367.941 735.4 364.377 727.49 360.568C722.51 358.225 717.09 355.393 711.23 352.072C705.371 348.654 699.805 344.504 694.531 339.621C689.258 334.738 684.912 328.83 681.494 321.896C678.174 314.865 676.514 306.467 676.514 296.701C676.514 283.908 679.443 272.971 685.303 263.889C691.162 254.807 699.512 247.873 710.352 243.088C721.289 238.205 734.18 235.764 749.023 235.764C760.156 235.764 770.752 237.082 780.811 239.719C790.967 242.258 801.562 245.969 812.598 250.852L797.949 286.154C788.086 282.15 779.248 279.074 771.436 276.926C763.623 274.68 755.664 273.557 747.559 273.557C741.895 273.557 737.061 274.484 733.057 276.34C729.053 278.098 726.025 280.637 723.975 283.957C721.924 287.18 720.898 290.939 720.898 295.236C720.898 300.314 722.363 304.611 725.293 308.127C728.32 311.545 732.812 314.865 738.77 318.088C744.824 321.311 752.344 325.07 761.328 329.367C772.266 334.543 781.592 339.963 789.307 345.627C797.119 351.193 803.125 357.785 807.324 365.402C811.523 372.922 813.623 382.297 813.623 393.527Z" fill="white"/>
<path d="M812 509H188V529H812V509Z" fill="white"/>
<path d="M190.174 615.56C190.174 613.22 190.588 610.934 191.416 608.702C192.28 606.434 193.522 604.382 195.142 602.546C196.762 600.674 198.742 599.198 201.082 598.118C203.422 597.002 206.086 596.444 209.074 596.444C212.602 596.444 215.644 597.218 218.2 598.766C220.792 600.314 222.718 602.33 223.978 604.814L218.254 608.756C217.606 607.316 216.76 606.182 215.716 605.354C214.672 604.49 213.556 603.896 212.368 603.572C211.18 603.212 210.01 603.032 208.858 603.032C206.986 603.032 205.348 603.41 203.944 604.166C202.576 604.922 201.424 605.912 200.488 607.136C199.552 608.36 198.85 609.728 198.382 611.24C197.95 612.752 197.734 614.264 197.734 615.776C197.734 617.468 198.004 619.106 198.544 620.69C199.084 622.238 199.84 623.624 200.812 624.848C201.82 626.036 203.008 626.99 204.376 627.71C205.78 628.394 207.31 628.736 208.966 628.736C210.154 628.736 211.36 628.538 212.584 628.142C213.808 627.746 214.942 627.116 215.986 626.252C217.03 625.388 217.84 624.272 218.416 622.904L224.518 626.414C223.762 628.322 222.52 629.942 220.792 631.274C219.1 632.606 217.192 633.614 215.068 634.298C212.944 634.982 210.838 635.324 208.75 635.324C206.014 635.324 203.512 634.766 201.244 633.65C198.976 632.498 197.014 630.986 195.358 629.114C193.738 627.206 192.46 625.082 191.524 622.742C190.624 620.366 190.174 617.972 190.174 615.56ZM245.403 635.27C242.595 635.27 240.039 634.73 237.735 633.65C235.467 632.57 233.505 631.112 231.849 629.276C230.229 627.404 228.969 625.316 228.069 623.012C227.169 620.672 226.719 618.278 226.719 615.83C226.719 613.274 227.187 610.844 228.123 608.54C229.095 606.2 230.409 604.13 232.065 602.33C233.757 600.494 235.737 599.054 238.005 598.01C240.309 596.93 242.829 596.39 245.565 596.39C248.337 596.39 250.857 596.948 253.125 598.064C255.429 599.18 257.391 600.674 259.011 602.546C260.631 604.418 261.891 606.506 262.791 608.81C263.691 611.114 264.141 613.49 264.141 615.938C264.141 618.458 263.673 620.888 262.737 623.228C261.801 625.532 260.487 627.602 258.795 629.438C257.139 631.238 255.159 632.66 252.855 633.704C250.587 634.748 248.103 635.27 245.403 635.27ZM234.279 615.83C234.279 617.486 234.531 619.088 235.035 620.636C235.539 622.184 236.259 623.57 237.195 624.794C238.167 625.982 239.337 626.936 240.705 627.656C242.109 628.34 243.693 628.682 245.457 628.682C247.257 628.682 248.859 628.322 250.263 627.602C251.667 626.846 252.837 625.856 253.773 624.632C254.709 623.372 255.411 621.986 255.879 620.474C256.383 618.926 256.635 617.378 256.635 615.83C256.635 614.174 256.365 612.59 255.825 611.078C255.321 609.53 254.583 608.162 253.611 606.974C252.675 605.75 251.505 604.796 250.101 604.112C248.733 603.392 247.185 603.032 245.457 603.032C243.621 603.032 242.001 603.41 240.597 604.166C239.229 604.886 238.077 605.858 237.141 607.082C236.205 608.306 235.485 609.674 234.981 611.186C234.513 612.698 234.279 614.246 234.279 615.83ZM272.323 596.66L282.691 626.144L292.951 596.66H300.781L286.255 635H279.073L264.493 596.66H272.323ZM304.873 635V596.66H312.325V635H304.873ZM320.324 635V596.66H334.256C338.432 596.66 341.924 597.524 344.732 599.252C347.54 600.944 349.646 603.248 351.05 606.164C352.454 609.044 353.156 612.248 353.156 615.776C353.156 619.664 352.382 623.048 350.834 625.928C349.286 628.808 347.09 631.04 344.246 632.624C341.438 634.208 338.108 635 334.256 635H320.324ZM345.65 615.776C345.65 613.292 345.2 611.114 344.3 609.242C343.4 607.334 342.104 605.858 340.412 604.814C338.72 603.734 336.668 603.194 334.256 603.194H327.776V628.466H334.256C336.704 628.466 338.774 627.926 340.466 626.846C342.158 625.73 343.436 624.218 344.3 622.31C345.2 620.366 345.65 618.188 345.65 615.776ZM358.114 623.444V616.91H374.476V623.444H358.114ZM402.933 628.466V635H381.009V628.466H388.677V612.104C388.353 612.536 387.849 612.986 387.165 613.454C386.481 613.886 385.707 614.3 384.843 614.696C383.979 615.092 383.115 615.416 382.251 615.668C381.387 615.92 380.613 616.046 379.929 616.046V609.296C380.577 609.296 381.351 609.098 382.251 608.702C383.187 608.27 384.105 607.766 385.005 607.19C385.941 606.614 386.733 606.056 387.381 605.516C388.065 604.94 388.497 604.49 388.677 604.166H396.075V628.466H402.933ZM405.964 617.504C405.964 619.916 406.54 622.094 407.692 624.038C408.88 625.946 410.482 627.476 412.498 628.628C414.55 629.744 416.818 630.302 419.302 630.302C420.526 630.302 421.642 630.14 422.65 629.816C423.694 629.456 424.612 628.952 425.404 628.304C426.232 627.656 426.88 626.918 427.348 626.09C427.312 628.394 426.952 630.374 426.268 632.03C425.62 633.65 424.702 634.892 423.514 635.756C422.362 636.62 420.976 637.052 419.356 637.052C417.772 637.052 416.278 636.656 414.874 635.864C413.506 635.108 412.39 634.064 411.526 632.732L407.368 637.268C408.772 639.212 410.5 640.706 412.552 641.75C414.604 642.794 416.836 643.316 419.248 643.316C422.272 643.316 424.9 642.488 427.132 640.832C429.364 639.176 431.074 636.746 432.262 633.542C433.486 630.338 434.098 626.414 434.098 621.77C434.098 618.062 433.522 614.912 432.37 612.32C431.218 609.692 429.58 607.676 427.456 606.272C425.368 604.868 422.866 604.166 419.95 604.166C417.322 604.166 414.946 604.76 412.822 605.948C410.698 607.136 409.024 608.738 407.8 610.754C406.576 612.77 405.964 615.02 405.964 617.504ZM419.95 610.268C421.21 610.268 422.38 610.61 423.46 611.294C424.54 611.942 425.404 612.824 426.052 613.94C426.7 615.02 427.024 616.208 427.024 617.504C427.024 618.8 426.7 619.988 426.052 621.068C425.404 622.112 424.54 622.958 423.46 623.606C422.416 624.218 421.246 624.524 419.95 624.524C418.654 624.524 417.466 624.218 416.386 623.606C415.306 622.958 414.442 622.112 413.794 621.068C413.182 619.988 412.876 618.8 412.876 617.504C412.876 616.172 413.2 614.966 413.848 613.886C414.496 612.806 415.36 611.942 416.44 611.294C417.52 610.61 418.69 610.268 419.95 610.268ZM455.1 596.66L465.468 626.144L475.728 596.66H483.558L469.032 635H461.85L447.27 596.66H455.1ZM494.961 596.66H502.521L516.615 635H508.947L505.383 625.442H491.991L488.481 635H480.813L494.961 596.66ZM504.033 620.204L498.741 604.382L493.233 620.204H504.033ZM517.022 615.56C517.022 613.22 517.436 610.934 518.264 608.702C519.128 606.434 520.37 604.382 521.99 602.546C523.61 600.674 525.59 599.198 527.93 598.118C530.27 597.002 532.934 596.444 535.922 596.444C539.45 596.444 542.492 597.218 545.048 598.766C547.64 600.314 549.566 602.33 550.826 604.814L545.102 608.756C544.454 607.316 543.608 606.182 542.564 605.354C541.52 604.49 540.404 603.896 539.216 603.572C538.028 603.212 536.858 603.032 535.706 603.032C533.834 603.032 532.196 603.41 530.792 604.166C529.424 604.922 528.272 605.912 527.336 607.136C526.4 608.36 525.698 609.728 525.23 611.24C524.798 612.752 524.582 614.264 524.582 615.776C524.582 617.468 524.852 619.106 525.392 620.69C525.932 622.238 526.688 623.624 527.66 624.848C528.668 626.036 529.856 626.99 531.224 627.71C532.628 628.394 534.158 628.736 535.814 628.736C537.002 628.736 538.208 628.538 539.432 628.142C540.656 627.746 541.79 627.116 542.834 626.252C543.878 625.388 544.688 624.272 545.264 622.904L551.366 626.414C550.61 628.322 549.368 629.942 547.64 631.274C545.948 632.606 544.04 633.614 541.916 634.298C539.792 634.982 537.686 635.324 535.598 635.324C532.862 635.324 530.36 634.766 528.092 633.65C525.824 632.498 523.862 630.986 522.206 629.114C520.586 627.206 519.308 625.082 518.372 622.742C517.472 620.366 517.022 617.972 517.022 615.56ZM553.567 615.56C553.567 613.22 553.981 610.934 554.809 608.702C555.673 606.434 556.915 604.382 558.535 602.546C560.155 600.674 562.135 599.198 564.475 598.118C566.815 597.002 569.479 596.444 572.467 596.444C575.995 596.444 579.037 597.218 581.593 598.766C584.185 600.314 586.111 602.33 587.371 604.814L581.647 608.756C580.999 607.316 580.153 606.182 579.109 605.354C578.065 604.49 576.949 603.896 575.761 603.572C574.573 603.212 573.403 603.032 572.251 603.032C570.379 603.032 568.741 603.41 567.337 604.166C565.969 604.922 564.817 605.912 563.881 607.136C562.945 608.36 562.243 609.728 561.775 611.24C561.343 612.752 561.127 614.264 561.127 615.776C561.127 617.468 561.397 619.106 561.937 620.69C562.477 622.238 563.233 623.624 564.205 624.848C565.213 626.036 566.401 626.99 567.769 627.71C569.173 628.394 570.703 628.736 572.359 628.736C573.547 628.736 574.753 628.538 575.977 628.142C577.201 627.746 578.335 627.116 579.379 626.252C580.423 625.388 581.233 624.272 581.809 622.904L587.911 626.414C587.155 628.322 585.913 629.942 584.185 631.274C582.493 632.606 580.585 633.614 578.461 634.298C576.337 634.982 574.231 635.324 572.143 635.324C569.407 635.324 566.905 634.766 564.637 633.65C562.369 632.498 560.407 630.986 558.751 629.114C557.131 627.206 555.853 625.082 554.917 622.742C554.017 620.366 553.567 617.972 553.567 615.56ZM592.908 635V596.66H600.36V635H592.908ZM615.811 610.376V635H608.359V596.66H614.299L634.117 621.932V596.714H641.569V635H635.359L615.811 610.376ZM659.967 596.66H667.527L681.621 635H673.953L670.389 625.442H656.997L653.487 635H645.819L659.967 596.66ZM669.039 620.204L663.747 604.382L658.239 620.204H669.039ZM710.914 603.194H698.656V635H691.258V603.194H679V596.66H710.914V603.194ZM715.674 635V596.66H723.126V635H715.674ZM747.487 635.27C744.679 635.27 742.123 634.73 739.819 633.65C737.551 632.57 735.589 631.112 733.933 629.276C732.313 627.404 731.053 625.316 730.153 623.012C729.253 620.672 728.803 618.278 728.803 615.83C728.803 613.274 729.271 610.844 730.207 608.54C731.179 606.2 732.493 604.13 734.149 602.33C735.841 600.494 737.821 599.054 740.089 598.01C742.393 596.93 744.913 596.39 747.649 596.39C750.421 596.39 752.941 596.948 755.209 598.064C757.513 599.18 759.475 600.674 761.095 602.546C762.715 604.418 763.975 606.506 764.875 608.81C765.775 611.114 766.225 613.49 766.225 615.938C766.225 618.458 765.757 620.888 764.821 623.228C763.885 625.532 762.571 627.602 760.879 629.438C759.223 631.238 757.243 632.66 754.939 633.704C752.671 634.748 750.187 635.27 747.487 635.27ZM736.363 615.83C736.363 617.486 736.615 619.088 737.119 620.636C737.623 622.184 738.343 623.57 739.279 624.794C740.251 625.982 741.421 626.936 742.789 627.656C744.193 628.34 745.777 628.682 747.541 628.682C749.341 628.682 750.943 628.322 752.347 627.602C753.751 626.846 754.921 625.856 755.857 624.632C756.793 623.372 757.495 621.986 757.963 620.474C758.467 618.926 758.719 617.378 758.719 615.83C758.719 614.174 758.449 612.59 757.909 611.078C757.405 609.53 756.667 608.162 755.695 606.974C754.759 605.75 753.589 604.796 752.185 604.112C750.817 603.392 749.269 603.032 747.541 603.032C745.705 603.032 744.085 603.41 742.681 604.166C741.313 604.886 740.161 605.858 739.225 607.082C738.289 608.306 737.569 609.674 737.065 611.186C736.597 612.698 736.363 614.246 736.363 615.83ZM779.393 610.376V635H771.941V596.66H777.881L797.699 621.932V596.714H805.151V635H798.941L779.393 610.376ZM192.496 698V659.66H199.948V698H192.496ZM215.939 673.376V698H208.487V659.66H214.427L234.245 684.932V659.714H241.697V698H235.487L215.939 673.376ZM250.213 698V659.66H275.971V666.194H257.665V676.076H272.893V682.124H257.665V698H250.213ZM297.542 698.27C294.734 698.27 292.178 697.73 289.874 696.65C287.606 695.57 285.644 694.112 283.988 692.276C282.368 690.404 281.108 688.316 280.208 686.012C279.308 683.672 278.858 681.278 278.858 678.83C278.858 676.274 279.326 673.844 280.262 671.54C281.234 669.2 282.548 667.13 284.204 665.33C285.896 663.494 287.876 662.054 290.144 661.01C292.448 659.93 294.968 659.39 297.704 659.39C300.476 659.39 302.996 659.948 305.264 661.064C307.568 662.18 309.53 663.674 311.15 665.546C312.77 667.418 314.03 669.506 314.93 671.81C315.83 674.114 316.28 676.49 316.28 678.938C316.28 681.458 315.812 683.888 314.876 686.228C313.94 688.532 312.626 690.602 310.934 692.438C309.278 694.238 307.298 695.66 304.994 696.704C302.726 697.748 300.242 698.27 297.542 698.27ZM286.418 678.83C286.418 680.486 286.67 682.088 287.174 683.636C287.678 685.184 288.398 686.57 289.334 687.794C290.306 688.982 291.476 689.936 292.844 690.656C294.248 691.34 295.832 691.682 297.596 691.682C299.396 691.682 300.998 691.322 302.402 690.602C303.806 689.846 304.976 688.856 305.912 687.632C306.848 686.372 307.55 684.986 308.018 683.474C308.522 681.926 308.774 680.378 308.774 678.83C308.774 677.174 308.504 675.59 307.964 674.078C307.46 672.53 306.722 671.162 305.75 669.974C304.814 668.75 303.644 667.796 302.24 667.112C300.872 666.392 299.324 666.032 297.596 666.032C295.76 666.032 294.14 666.41 292.736 667.166C291.368 667.886 290.216 668.858 289.28 670.082C288.344 671.306 287.624 672.674 287.12 674.186C286.652 675.698 286.418 677.246 286.418 678.83ZM322.537 698V659.66H339.493C341.257 659.66 342.877 660.02 344.353 660.74C345.865 661.46 347.161 662.432 348.241 663.656C349.357 664.88 350.203 666.248 350.779 667.76C351.391 669.272 351.697 670.82 351.697 672.404C351.697 674.024 351.409 675.59 350.833 677.102C350.293 678.578 349.501 679.874 348.457 680.99C347.413 682.106 346.189 682.97 344.785 683.582L353.533 698H345.325L337.441 685.148H329.989V698H322.537ZM329.989 678.614H339.331C340.267 678.614 341.095 678.344 341.815 677.804C342.535 677.228 343.111 676.472 343.543 675.536C343.975 674.6 344.191 673.556 344.191 672.404C344.191 671.18 343.939 670.118 343.435 669.218C342.931 668.282 342.283 667.544 341.491 667.004C340.735 666.464 339.907 666.194 339.007 666.194H329.989V678.614ZM390.255 698V672.836L380.427 691.574H376.269L366.441 672.836V698H358.989V659.66H366.981L378.321 681.476L389.769 659.66H397.707V698H390.255ZM416.674 659.66H424.234L438.328 698H430.66L427.096 688.442H413.704L410.194 698H402.526L416.674 659.66ZM425.746 683.204L420.454 667.382L414.946 683.204H425.746ZM468.161 666.194H455.903V698H448.505V666.194H436.247V659.66H468.161V666.194ZM473.461 698V659.66H480.913V698H473.461ZM505.814 698.27C503.006 698.27 500.45 697.73 498.146 696.65C495.878 695.57 493.916 694.112 492.26 692.276C490.64 690.404 489.38 688.316 488.48 686.012C487.58 683.672 487.13 681.278 487.13 678.83C487.13 676.274 487.598 673.844 488.534 671.54C489.506 669.2 490.82 667.13 492.476 665.33C494.168 663.494 496.148 662.054 498.416 661.01C500.72 659.93 503.24 659.39 505.976 659.39C508.748 659.39 511.268 659.948 513.536 661.064C515.84 662.18 517.802 663.674 519.422 665.546C521.042 667.418 522.302 669.506 523.202 671.81C524.102 674.114 524.552 676.49 524.552 678.938C524.552 681.458 524.084 683.888 523.148 686.228C522.212 688.532 520.898 690.602 519.206 692.438C517.55 694.238 515.57 695.66 513.266 696.704C510.998 697.748 508.514 698.27 505.814 698.27ZM494.69 678.83C494.69 680.486 494.942 682.088 495.446 683.636C495.95 685.184 496.67 686.57 497.606 687.794C498.578 688.982 499.748 689.936 501.116 690.656C502.52 691.34 504.104 691.682 505.868 691.682C507.668 691.682 509.27 691.322 510.674 690.602C512.078 689.846 513.248 688.856 514.184 687.632C515.12 686.372 515.822 684.986 516.29 683.474C516.794 681.926 517.046 680.378 517.046 678.83C517.046 677.174 516.776 675.59 516.236 674.078C515.732 672.53 514.994 671.162 514.022 669.974C513.086 668.75 511.916 667.796 510.512 667.112C509.144 666.392 507.596 666.032 505.868 666.032C504.032 666.032 502.412 666.41 501.008 667.166C499.64 667.886 498.488 668.858 497.552 670.082C496.616 671.306 495.896 672.674 495.392 674.186C494.924 675.698 494.69 677.246 494.69 678.83ZM538.26 673.376V698H530.808V659.66H536.748L556.566 684.932V659.714H564.018V698H557.808L538.26 673.376ZM622.401 669.704C622.149 669.452 621.681 669.11 620.997 668.678C620.349 668.246 619.539 667.832 618.567 667.436C617.631 667.04 616.605 666.698 615.489 666.41C614.373 666.086 613.239 665.924 612.087 665.924C610.071 665.924 608.541 666.302 607.497 667.058C606.489 667.814 605.985 668.876 605.985 670.244C605.985 671.288 606.309 672.116 606.957 672.728C607.605 673.34 608.577 673.862 609.873 674.294C611.169 674.726 612.789 675.194 614.733 675.698C617.253 676.31 619.431 677.066 621.267 677.966C623.139 678.83 624.561 679.982 625.533 681.422C626.541 682.826 627.045 684.698 627.045 687.038C627.045 689.09 626.667 690.854 625.911 692.33C625.155 693.77 624.111 694.94 622.779 695.84C621.447 696.74 619.935 697.406 618.243 697.838C616.551 698.234 614.751 698.432 612.843 698.432C610.935 698.432 609.027 698.234 607.119 697.838C605.211 697.442 603.375 696.884 601.611 696.164C599.847 695.408 598.227 694.508 596.751 693.464L600.045 687.038C600.369 687.362 600.945 687.794 601.773 688.334C602.601 688.838 603.609 689.36 604.797 689.9C605.985 690.404 607.281 690.836 608.685 691.196C610.089 691.556 611.511 691.736 612.951 691.736C614.967 691.736 616.497 691.394 617.541 690.71C618.585 690.026 619.107 689.054 619.107 687.794C619.107 686.642 618.693 685.742 617.865 685.094C617.037 684.446 615.885 683.888 614.409 683.42C612.933 682.916 611.187 682.376 609.171 681.8C606.759 681.116 604.743 680.36 603.123 679.532C601.503 678.668 600.297 677.588 599.505 676.292C598.713 674.996 598.317 673.376 598.317 671.432C598.317 668.804 598.929 666.608 600.153 664.844C601.413 663.044 603.105 661.694 605.229 660.794C607.353 659.858 609.711 659.39 612.303 659.39C614.103 659.39 615.795 659.588 617.379 659.984C618.999 660.38 620.511 660.902 621.915 661.55C623.319 662.198 624.579 662.9 625.695 663.656L622.401 669.704ZM636.534 659.66L645.984 677.696L655.596 659.66H663.642L649.71 684.608V698H642.312V684.5L628.434 659.66H636.534ZM689.663 669.704C689.411 669.452 688.943 669.11 688.259 668.678C687.611 668.246 686.801 667.832 685.829 667.436C684.893 667.04 683.867 666.698 682.751 666.41C681.635 666.086 680.501 665.924 679.349 665.924C677.333 665.924 675.803 666.302 674.759 667.058C673.751 667.814 673.247 668.876 673.247 670.244C673.247 671.288 673.571 672.116 674.219 672.728C674.867 673.34 675.839 673.862 677.135 674.294C678.431 674.726 680.051 675.194 681.995 675.698C684.515 676.31 686.693 677.066 688.529 677.966C690.401 678.83 691.823 679.982 692.795 681.422C693.803 682.826 694.307 684.698 694.307 687.038C694.307 689.09 693.929 690.854 693.173 692.33C692.417 693.77 691.373 694.94 690.041 695.84C688.709 696.74 687.197 697.406 685.505 697.838C683.813 698.234 682.013 698.432 680.105 698.432C678.197 698.432 676.289 698.234 674.381 697.838C672.473 697.442 670.637 696.884 668.873 696.164C667.109 695.408 665.489 694.508 664.013 693.464L667.307 687.038C667.631 687.362 668.207 687.794 669.035 688.334C669.863 688.838 670.871 689.36 672.059 689.9C673.247 690.404 674.543 690.836 675.947 691.196C677.351 691.556 678.773 691.736 680.213 691.736C682.229 691.736 683.759 691.394 684.803 690.71C685.847 690.026 686.369 689.054 686.369 687.794C686.369 686.642 685.955 685.742 685.127 685.094C684.299 684.446 683.147 683.888 681.671 683.42C680.195 682.916 678.449 682.376 676.433 681.8C674.021 681.116 672.005 680.36 670.385 679.532C668.765 678.668 667.559 677.588 666.767 676.292C665.975 674.996 665.579 673.376 665.579 671.432C665.579 668.804 666.191 666.608 667.415 664.844C668.675 663.044 670.367 661.694 672.491 660.794C674.615 659.858 676.973 659.39 679.565 659.39C681.365 659.39 683.057 659.588 684.641 659.984C686.261 660.38 687.773 660.902 689.177 661.55C690.581 662.198 691.841 662.9 692.957 663.656L689.663 669.704ZM729.152 666.194H716.894V698H709.496V666.194H697.238V659.66H729.152V666.194ZM761.073 691.466V698H734.451V659.66H760.587V666.194H741.903V675.428H758.049V681.476H741.903V691.466H761.073ZM798.689 698V672.836L788.861 691.574H784.703L774.875 672.836V698H767.423V659.66H775.415L786.755 681.476L798.203 659.66H806.141V698H798.689Z" fill="white"/>
<path d="M812 765H188V785H812V765Z" fill="white"/>
<path d="M900 10H100C50.2944 10 10 50.2944 10 100V900C10 949.706 50.2944 990 100 990H900C949.706 990 990 949.706 990 900V100C990 50.2944 949.706 10 900 10Z" stroke="white" stroke-width="20" stroke-linejoin="round"/>
<defs>
<linearGradient id="paint0_linear_115_418" x1="1000" y1="1000" x2="9.73137e-06" y2="9.73137e-06" gradientUnits="userSpaceOnUse">
<stop stop-color="#00816D"/>
<stop offset="0.979167" stop-color="#00CBA9"/>
</linearGradient>
</defs>
</svg>
